<svg width="35" height="24" viewBox="0 0 35 24" fill="none" xmlns="http://www.w3.org/2000/svg">
<path d="M35 12C35 5.37258 29.6274 0 23 0H0V24H23C29.6274 24 35 18.6274 35 12Z" fill="url(#paint0_linear_12_537)"/>
<path d="M19.75 20.25H12.25C11.4546 20.2492 10.692 19.9329 10.1296 19.3704C9.56712 18.808 9.25079 18.0454 9.25 17.25V12.75C9.25079 11.9546 9.56712 11.192 10.1296 10.6296C10.692 10.0671 11.4546 9.75079 12.25 9.75H19.75C20.5454 9.75079 21.308 10.0671 21.8704 10.6296C22.4329 11.192 22.7492 11.9546 22.75 12.75V17.25C22.7492 18.0454 22.4329 18.808 21.8704 19.3704C21.308 19.9329 20.5454 20.2492 19.75 20.25ZM12.25 11.25C11.8523 11.2504 11.471 11.4086 11.1898 11.6898C10.9086 11.971 10.7504 12.3523 10.75 12.75V17.25C10.7504 17.6477 10.9086 18.029 11.1898 18.3102C11.471 18.5914 11.8523 18.7496 12.25 18.75H19.75C20.1477 18.7496 20.529 18.5914 20.8102 18.3102C21.0914 18.029 21.2496 17.6477 21.25 17.25V12.75C21.2496 12.3523 21.0914 11.971 20.8102 11.6898C20.529 11.4086 20.1477 11.2504 19.75 11.25H12.25Z" fill="white"/>
<path d="M19.375 11.25H12.625C12.4261 11.25 12.2353 11.171 12.0947 11.0303C11.954 10.8897 11.875 10.6989 11.875 10.5V7.875C11.875 6.78098 12.3096 5.73177 13.0832 4.95818C13.8568 4.1846 14.906 3.75 16 3.75C17.094 3.75 18.1432 4.1846 18.9168 4.95818C19.6904 5.73177 20.125 6.78098 20.125 7.875V10.5C20.125 10.6989 20.046 10.8897 19.9053 11.0303C19.7647 11.171 19.5739 11.25 19.375 11.25ZM13.375 9.75H18.625V7.875C18.625 7.17881 18.3484 6.51113 17.8562 6.01884C17.3639 5.52656 16.6962 5.25 16 5.25C15.3038 5.25 14.6361 5.52656 14.1438 6.01884C13.6516 6.51113 13.375 7.17881 13.375 7.875V9.75Z" fill="white"/>
<path d="M16 15.375C16.6213 15.375 17.125 14.8713 17.125 14.25C17.125 13.6287 16.6213 13.125 16 13.125C15.3787 13.125 14.875 13.6287 14.875 14.25C14.875 14.8713 15.3787 15.375 16 15.375Z" fill="white"/>
<defs>
<linearGradient id="paint0_linear_12_537" x1="47.5533" y1="-8.52" x2="-16.201" y2="51.3178" gradientUnits="userSpaceOnUse">
<stop stop-color="#3550DC"/>
<stop offset="1" stop-color="#27E9F7"/>
</linearGradient>
</defs>
</svg>
