<svg width="17" height="20" viewBox="0 0 17 20" fill="none" xmlns="http://www.w3.org/2000/svg">
<path d="M10.1486 9.9704H15.1512C15.782 9.9704 16.2988 10.4786 16.2988 11.0987C16.2988 11.7199 15.782 12.2271 15.1512 12.2271C15.782 12.2271 16.2988 12.7352 16.2988 13.3554C16.2988 13.9766 15.782 14.4838 15.1512 14.4838C15.782 14.4838 16.2988 14.9919 16.2988 15.6121C16.2988 16.2333 15.782 16.7415 15.1512 16.7415H14.2779C14.9087 16.7415 15.4255 17.2486 15.4255 17.8698C15.4255 18.49 14.9087 18.9982 14.2779 18.9982H9.0876C7.88522 18.9982 5.75993 18.4091 4.83386 17.6396" stroke="#3276E3" stroke-width="1.2" stroke-miterlimit="10" stroke-linecap="round" stroke-linejoin="round"/>
<path d="M4.83386 11.1073C7.02981 9.73007 7.7017 8.08834 8.12358 5.46865C8.25649 4.63897 8.50434 3.84873 9.70781 4.43986C10.4978 4.82772 11.1823 6.13654 10.7942 7.57602L10.1487 9.97169M15.1513 12.2284H13.5871M15.1513 14.4851H13.5871M14.2779 16.7428H13.5871" stroke="#3276E3" stroke-width="1.2" stroke-miterlimit="10" stroke-linecap="round" stroke-linejoin="round"/>
<path d="M4.8361 11.1085V17.6422M3.0051 12.0741V12.0761M6.08176 2.74128L5.42044 2.16467M12.8236 2.74128L13.4849 2.16467M9.45267 1.86909V1M3.9923 5.32984L4.87618 5.36614M14.913 5.32984L14.0292 5.36614M4.17582 18.7052H1.66028C1.29745 18.7052 1 18.4127 1 18.0559V10.6947C1 10.338 1.29745 10.0455 1.66028 10.0455H4.17582C4.53865 10.0455 4.8361 10.338 4.8361 10.6947V18.056C4.8361 18.4127 4.53865 18.7052 4.17582 18.7052Z" stroke="#3276E3" stroke-width="1.2" stroke-miterlimit="10" stroke-linecap="round" stroke-linejoin="round"/>
</svg>
