<svg width="14" height="18" viewBox="0 0 14 18" fill="none" xmlns="http://www.w3.org/2000/svg">
<path d="M13.8422 4.37316L9.53465 0.154512C9.43362 0.0556483 9.29667 7.90461e-05 9.15385 0L1.61538 0C0.724662 0 0 0.709699 0 1.58203V16.418C0 17.2903 0.724662 18 1.61538 18H12.3846C13.2753 18 14 17.2903 14 16.418V4.74609C14 4.6023 13.9384 4.46727 13.8422 4.37316ZM9.69231 1.80046L12.1616 4.21875H10.2308C9.93386 4.21875 9.69231 3.98218 9.69231 3.69141V1.80046ZM12.3846 16.9453H1.61538C1.31848 16.9453 1.07692 16.7087 1.07692 16.418V1.58203C1.07692 1.29125 1.31848 1.05469 1.61538 1.05469H8.61539V3.69141C8.61539 4.56374 9.34005 5.27344 10.2308 5.27344H12.9231V16.418C12.9231 16.7087 12.6815 16.9453 12.3846 16.9453Z" fill="black"/>
<path d="M10.2307 7.45312H3.76917C3.4718 7.45312 3.23071 7.68923 3.23071 7.98047C3.23071 8.2717 3.4718 8.50781 3.76917 8.50781H10.2307C10.5281 8.50781 10.7692 8.2717 10.7692 7.98047C10.7692 7.68923 10.5281 7.45312 10.2307 7.45312ZM10.2307 9.5625H3.76917C3.4718 9.5625 3.23071 9.79861 3.23071 10.0898C3.23071 10.3811 3.4718 10.6172 3.76917 10.6172H10.2307C10.5281 10.6172 10.7692 10.3811 10.7692 10.0898C10.7692 9.79861 10.5281 9.5625 10.2307 9.5625ZM10.2307 11.6719H3.76917C3.4718 11.6719 3.23071 11.908 3.23071 12.1992C3.23071 12.4905 3.4718 12.7266 3.76917 12.7266H10.2307C10.5281 12.7266 10.7692 12.4905 10.7692 12.1992C10.7692 11.908 10.5281 11.6719 10.2307 11.6719ZM8.07687 13.7812H3.76917C3.4718 13.7812 3.23071 14.0174 3.23071 14.3086C3.23071 14.5998 3.4718 14.8359 3.76917 14.8359H8.07687C8.37424 14.8359 8.61533 14.5998 8.61533 14.3086C8.61533 14.0174 8.37424 13.7812 8.07687 13.7812Z" fill="black"/>
</svg>
